<svg xmlns="http://www.w3.org/2000/svg" xmlns:xlink="http://www.w3.org/1999/xlink" xmlns:lucid="lucid" width="636.22" height="648.82"><g transform="translate(0 0)" lucid:page-tab-id="0_0"><path d="M20 35c0-8.28 6.72-15 15-15h570c8.28 0 15 6.72 15 15v586.22c0 8.28-6.72 15-15 15H35c-8.28 0-15-6.72-15-15z" stroke="#000" stroke-width="2" fill="#ffeca9"/><use xlink:href="#a" transform="matrix(1,0,0,1,25,25) translate(246.25 14.4)"/><path d="M50 135c0-8.28 6.72-15 15-15h510c8.28 0 15 6.72 15 15v454.22c0 8.28-6.72 15-15 15H65c-8.28 0-15-6.72-15-15z" stroke="#000" stroke-width="2" fill="#f8f0d4"/><use xlink:href="#b" transform="matrix(1,0,0,1,55,125) translate(163.89999999999998 14.4)"/><use xlink:href="#c" transform="matrix(1,0,0,1,55,125) translate(266.4 14.4)"/><use xlink:href="#d" transform="matrix(1,0,0,1,55,125) translate(309.29999999999995 14.4)"/><path d="M64 152h400v40H64z" stroke="#000" stroke-opacity="0" stroke-width="2" fill="#fff" fill-opacity="0"/><use xlink:href="#e" transform="matrix(1,0,0,1,69,157) translate(0 14.396484375)"/><use xlink:href="#f" transform="matrix(1,0,0,1,69,157) translate(226.8369140625 14.396484375)"/><path d="M50 75c0-8.28 6.72-15 15-15h510c8.28 0 15 6.72 15 15v10c0 8.28-6.72 15-15 15H65c-8.28 0-15-6.72-15-15z" stroke="#000" stroke-width="2" fill="#f8f0d4"/><use xlink:href="#g" transform="matrix(1,0,0,1,55,65) translate(175.375 18.15)"/><use xlink:href="#h" transform="matrix(1,0,0,1,55,65) translate(243.325 18.15)"/><use xlink:href="#i" transform="matrix(1,0,0,1,55,65) translate(306.325 18.15)"/><path d="M124 234c0-8.28 6.72-15 15-15h415c8.28 0 15 6.72 15 15v314c0 8.28-6.72 15-15 15H139c-8.28 0-15-6.72-15-15z" stroke="#000" stroke-width="2" fill="#c1e4f7"/><use xlink:href="#j" transform="matrix(1,0,0,1,129,224) translate(158.25 14.4)"/><use xlink:href="#k" transform="matrix(1,0,0,1,129,224) translate(240.10000000000002 14.4)"/><path d="M107.5 216c0-8.28 6.72-15 15-15h415c8.28 0 15 6.72 15 15v312c0 8.28-6.72 15-15 15h-415c-8.28 0-15-6.72-15-15z" stroke="#000" stroke-width="2" fill="#c1e4f7"/><use xlink:href="#j" transform="matrix(1,0,0,1,112.5,206) translate(158.25 14.4)"/><use xlink:href="#k" transform="matrix(1,0,0,1,112.5,206) translate(240.10000000000002 14.4)"/><path d="M91 198c0-8.28 6.72-15 15-15h415c8.28 0 15 6.72 15 15v310c0 8.28-6.72 15-15 15H106c-8.28 0-15-6.72-15-15z" stroke="#000" stroke-width="2" fill="#c1e4f7"/><use xlink:href="#b" transform="matrix(1,0,0,1,96,188) translate(134.325 14.4)"/><use xlink:href="#l" transform="matrix(1,0,0,1,96,188) translate(236.825 14.4)"/><path d="M116 223h400v280H116z" stroke="#000" stroke-opacity="0" stroke-width="2" fill="#fff" fill-opacity="0"/><use xlink:href="#m" transform="matrix(1,0,0,1,121,228) translate(0 14.396484375)"/><use xlink:href="#n" transform="matrix(1,0,0,1,121,228) translate(0 32.396484375)"/><use xlink:href="#o" transform="matrix(1,0,0,1,121,228) translate(0 50.396484375)"/><use xlink:href="#p" transform="matrix(1,0,0,1,121,228) translate(0 68.396484375)"/><use xlink:href="#q" transform="matrix(1,0,0,1,121,228) translate(183.6298828125 68.396484375)"/><use xlink:href="#r" transform="matrix(1,0,0,1,121,228) translate(0 86.396484375)"/><use xlink:href="#r" transform="matrix(1,0,0,1,121,228) translate(0 104.396484375)"/><use xlink:href="#r" transform="matrix(1,0,0,1,121,228) translate(0 122.396484375)"/><use xlink:href="#r" transform="matrix(1,0,0,1,121,228) translate(0 140.396484375)"/><use xlink:href="#r" transform="matrix(1,0,0,1,121,228) translate(0 158.396484375)"/><use xlink:href="#r" transform="matrix(1,0,0,1,121,228) translate(0 176.396484375)"/><use xlink:href="#r" transform="matrix(1,0,0,1,121,228) translate(0 194.396484375)"/><use xlink:href="#r" transform="matrix(1,0,0,1,121,228) translate(0 212.396484375)"/><use xlink:href="#r" transform="matrix(1,0,0,1,121,228) translate(0 230.396484375)"/><use xlink:href="#r" transform="matrix(1,0,0,1,121,228) translate(0 248.396484375)"/><use xlink:href="#s" transform="matrix(1,0,0,1,121,228) translate(0 266.396484375)"/><path d="M156 318c0-8.28 6.72-15 15-15h310c8.28 0 15 6.72 15 15v150c0 8.28-6.72 15-15 15H171c-8.28 0-15-6.72-15-15z" stroke="#000" stroke-width="2" fill="#dfeef7"/><g><use xlink:href="#b" transform="matrix(1,0,0,1,161,308) translate(54.17499999999998 14.4)"/><use xlink:href="#t" transform="matrix(1,0,0,1,161,308) translate(156.67499999999998 14.4)"/><use xlink:href="#u" transform="matrix(1,0,0,1,161,308) translate(202.975 14.4)"/></g><path d="M164 351h332v132H164z" stroke="#000" stroke-opacity="0" stroke-width="2" fill="#fff" fill-opacity="0"/><g><use xlink:href="#v" transform="matrix(1,0,0,1,169,356) translate(0 14.396484375)"/><use xlink:href="#r" transform="matrix(1,0,0,1,169,356) translate(0 32.396484375)"/><use xlink:href="#w" transform="matrix(1,0,0,1,169,356) translate(0 50.396484375)"/><use xlink:href="#x" transform="matrix(1,0,0,1,169,356) translate(129.62109375 50.396484375)"/><use xlink:href="#y" transform="matrix(1,0,0,1,169,356) translate(0 68.396484375)"/><use xlink:href="#x" transform="matrix(1,0,0,1,169,356) translate(97.2158203125 68.396484375)"/><use xlink:href="#z" transform="matrix(1,0,0,1,169,356) translate(0 86.396484375)"/><use xlink:href="#x" transform="matrix(1,0,0,1,169,356) translate(108.017578125 86.396484375)"/><use xlink:href="#A" transform="matrix(1,0,0,1,169,356) translate(0 104.396484375)"/></g><path d="M216 238c0-8.28 6.72-15 15-15h250c8.28 0 15 6.72 15 15v10c0 8.28-6.72 15-15 15H231c-8.28 0-15-6.72-15-15z" stroke="#000" stroke-width="2" fill="#dfeef7"/><g><use xlink:href="#b" transform="matrix(1,0,0,1,221,228) translate(19.69999999999999 18.15)"/><use xlink:href="#t" transform="matrix(1,0,0,1,221,228) translate(122.19999999999999 18.15)"/><use xlink:href="#B" transform="matrix(1,0,0,1,221,228) translate(168.5 18.15)"/></g><path d="M196 213h80v60h-80z" fill="none"/><path d="M196 273c2.07 0 3.75-1.68 3.75-3.75v-22.5c0-2.07 1.68-3.75 3.75-3.75-2.07 0-3.75-1.68-3.75-3.75v-22.5c0-2.07-1.68-3.75-3.75-3.75" stroke="#000" stroke-width="2" fill="none"/><path d="M256 364c0-8.28 6.72-15 15-15h190c8.28 0 15 6.72 15 15v2c0 8.28-6.72 15-15 15H271c-8.28 0-15-6.72-15-15z" stroke="#000" stroke-width="2" fill="#c1e4f7"/><g><use xlink:href="#b" transform="matrix(1,0,0,1,261,354) translate(7.125 15.775)"/><use xlink:href="#t" transform="matrix(1,0,0,1,261,354) translate(109.625 15.775)"/><use xlink:href="#C" transform="matrix(1,0,0,1,261,354) translate(155.925 15.775)"/></g><path d="M64 564h400v40H64z" stroke="#000" stroke-opacity="0" stroke-width="2" fill="#fff" fill-opacity="0"/><g><use xlink:href="#D" transform="matrix(1,0,0,1,69,569) translate(0 14.396484375)"/></g><defs><path d="M24-248c93 1 206-16 204 79-1 75-69 88-152 82V0H24v-248zm52 121c47 0 100 7 100-41 0-47-54-39-100-39v80" id="E"/><path d="M199 0l-22-63H83L61 0H9l90-248h61L250 0h-51zm-33-102l-36-108c-10 38-24 72-36 108h72" id="F"/><path d="M169-182c-1-43-94-46-97-3 18 66 151 10 154 114 3 95-165 93-204 36-6-8-10-19-12-30l50-8c3 46 112 56 116 5-17-69-150-10-154-114-4-87 153-88 188-35 5 8 8 18 10 28" id="G"/><path d="M140-251c80 0 125 45 125 126S219 4 139 4C58 4 15-44 15-125s44-126 125-126zm-1 214c52 0 73-35 73-88 0-50-21-86-72-86-52 0-73 35-73 86s22 88 72 88" id="H"/><path d="M240-174c0 40-23 61-54 70L253 0h-59l-57-94H76V0H24v-248c93 4 217-23 216 74zM76-134c48-2 112 12 112-38 0-48-66-32-112-35v73" id="I"/><path d="M136-208V0H84v-208H4v-40h212v40h-80" id="J"/><g id="a"><use transform="matrix(0.05,0,0,0.05,0,0)" xlink:href="#E"/><use transform="matrix(0.05,0,0,0.05,10.65,0)" xlink:href="#F"/><use transform="matrix(0.05,0,0,0.05,23.6,0)" xlink:href="#G"/><use transform="matrix(0.05,0,0,0.05,35.6,0)" xlink:href="#G"/><use transform="matrix(0.05,0,0,0.05,47.6,0)" xlink:href="#E"/><use transform="matrix(0.05,0,0,0.05,59.6,0)" xlink:href="#H"/><use transform="matrix(0.05,0,0,0.05,73.6,0)" xlink:href="#I"/><use transform="matrix(0.05,0,0,0.05,86.55,0)" xlink:href="#J"/></g><g id="b"><use transform="matrix(0.05,0,0,0.05,0,0)" xlink:href="#E"/><use transform="matrix(0.05,0,0,0.05,10.65,0)" xlink:href="#F"/><use transform="matrix(0.05,0,0,0.05,23.6,0)" xlink:href="#G"/><use transform="matrix(0.05,0,0,0.05,35.6,0)" xlink:href="#G"/><use transform="matrix(0.05,0,0,0.05,47.6,0)" xlink:href="#E"/><use transform="matrix(0.05,0,0,0.05,59.6,0)" xlink:href="#H"/><use transform="matrix(0.05,0,0,0.05,73.6,0)" xlink:href="#I"/><use transform="matrix(0.05,0,0,0.05,86.55,0)" xlink:href="#J"/></g><path d="M176-78C186 10 51 31 16-35c-5-9-9-19-11-32l52-8c4 21 12 37 35 38 23 0 32-16 32-40v-130H75v-41h101v170" id="K"/><path d="M275 0h-61l-44-196L126 0H64L0-248h53L97-49l45-199h58l43 199 44-199h52" id="L"/><g id="c"><use transform="matrix(0.05,0,0,0.05,0,0)" xlink:href="#K"/><use transform="matrix(0.05,0,0,0.05,10,0)" xlink:href="#L"/><use transform="matrix(0.05,0,0,0.05,26.950000000000003,0)" xlink:href="#J"/></g><path d="M67-125c0 53 21 87 73 88 37 1 54-22 65-47l45 17C233-25 199 4 140 4 58 4 20-42 15-125 8-235 124-281 211-232c18 10 29 29 36 50l-46 12c-8-25-30-41-62-41-52 0-71 34-72 86" id="M"/><path d="M24 0v-248h52v208h133V0H24" id="N"/><path d="M24 0v-248h52V0H24" id="O"/><path d="M230 0l2-204L168 0h-37L68-204 70 0H24v-248h70l56 185 57-185h69V0h-46" id="P"/><g id="d"><use transform="matrix(0.05,0,0,0.05,0,0)" xlink:href="#M"/><use transform="matrix(0.05,0,0,0.05,12.950000000000001,0)" xlink:href="#N"/><use transform="matrix(0.05,0,0,0.05,23.900000000000002,0)" xlink:href="#F"/><use transform="matrix(0.05,0,0,0.05,36.85,0)" xlink:href="#O"/><use transform="matrix(0.05,0,0,0.05,41.85,0)" xlink:href="#P"/></g><path d="M908-845H766l-40-639h224zm-449 0H318l-41-639h224" id="Q"/><path d="M1048-32c-2 300-135 456-433 456-222-1-358-88-400-267l184-25c22 99 100 157 222 156 184-2 248-125 248-315 0-64 3-133-2-194C807-100 706-13 524-12c-306 0-381-228-381-537 0-318 85-550 400-550 164 0 271 83 325 202h3c1-60 3-134 12-185h171c-13 339-4 702-6 1050zM585-145c210-8 284-178 284-406 0-192-52-331-177-392-33-16-69-22-104-22-223 2-259 184-259 414 0 229 31 415 256 406" id="R"/><path d="M1000-272c3 95 12 159 101 161 21 0 41-3 59-7V-6c-44 10-86 16-139 16-141 2-191-84-197-217h-6C748-76 648 20 446 20c-207 0-318-120-318-322 0-266 194-348 454-354l236-4c12-191-40-305-222-305-140 0-220 47-232 172l-188-17c33-204 181-292 423-292 255 0 401 118 401 364v466zm-683-27c0 109 63 184 175 182 166-3 259-96 306-217 24-65 20-120 20-200-232 7-501-28-501 235" id="S"/><path d="M937-319V0H757v-319H103v-140l635-890h199v888h188v142H937zm-180-835L257-461h500v-693" id="T"/><path d="M648-963c-190 6-283 138-283 336V0H185v-1484h181c-2 197 6 404-9 587h3c62-120 159-205 339-205 242 0 351 135 350 381V0H868v-695c1-168-57-273-220-268" id="U"/><path d="M-5 220v-96h1238v96H-5" id="V"/><path d="M698-1104c312 3 392 244 392 558 0 315-82 566-392 566-169 0-277-65-331-184h-5c8 188 2 394 4 589H185V-858c0-76-1-156-6-224h175c6 52 9 120 10 178h4c58-122 150-202 330-200zm-49 991c225 0 255-203 255-433 0-225-32-419-253-419-236 0-285 192-285 441 0 237 53 411 283 411" id="W"/><path d="M873-819c-18-114-119-146-250-146-163 0-245 50-245 151 0 151 170 148 294 185 182 54 388 94 388 320 0 240-189 325-439 329-245 4-410-69-454-268l159-31c24 133 136 168 295 165 144-2 270-31 270-171 0-164-195-160-331-202-167-52-350-87-350-299 0-218 173-315 413-313 220 2 373 77 412 260" id="X"/><path d="M615-1102c343 0 484 203 482 560-1 347-147 562-488 562-336 0-475-219-479-562-4-349 156-560 485-560zm-8 989c240 0 301-180 301-429 0-245-55-427-290-427-236 0-299 181-299 427 0 243 61 429 288 429" id="Y"/><path d="M839-1102c70 0 148 7 206 17v167c-112-18-268-36-363 15-129 69-208 203-208 395V0H294c-10-367 32-789-52-1082h171c21 75 41 161 48 250h5c67-152 152-270 373-270" id="Z"/><path d="M682 16c-209 0-323-80-324-285v-671H190v-142h170l58-282h120v282h432v142H538v652c2 114 60 155 182 155 106 0 209-16 297-34v137C921-4 806 16 682 16" id="aa"/><path d="M715 0H502L69-1082h202c94 253 197 500 285 758 19 57 36 126 52 183 96-335 234-626 350-941h201" id="ab"/><path d="M148-1120c216-7 379-89 463-229h166v1204h353V0H157v-145h439v-1021c-79 124-254 184-448 194v-148" id="ac"/><path d="M496 0v-299h235V0H496zm0-783v-299h235v299H496" id="ad"/><g id="e"><use transform="matrix(0.0087890625,0,0,0.0087890625,0,0)" xlink:href="#Q"/><use transform="matrix(0.0087890625,0,0,0.0087890625,10.8017578125,0)" xlink:href="#R"/><use transform="matrix(0.0087890625,0,0,0.0087890625,21.603515625,0)" xlink:href="#S"/><use transform="matrix(0.0087890625,0,0,0.0087890625,32.4052734375,0)" xlink:href="#T"/><use transform="matrix(0.0087890625,0,0,0.0087890625,43.20703125,0)" xlink:href="#R"/><use transform="matrix(0.0087890625,0,0,0.0087890625,54.0087890625,0)" xlink:href="#U"/><use transform="matrix(0.0087890625,0,0,0.0087890625,64.810546875,0)" xlink:href="#V"/><use transform="matrix(0.0087890625,0,0,0.0087890625,75.6123046875,0)" xlink:href="#W"/><use transform="matrix(0.0087890625,0,0,0.0087890625,86.4140625,0)" xlink:href="#S"/><use transform="matrix(0.0087890625,0,0,0.0087890625,97.2158203125,0)" xlink:href="#X"/><use transform="matrix(0.0087890625,0,0,0.0087890625,108.017578125,0)" xlink:href="#X"/><use transform="matrix(0.0087890625,0,0,0.0087890625,118.8193359375,0)" xlink:href="#W"/><use transform="matrix(0.0087890625,0,0,0.0087890625,129.62109375,0)" xlink:href="#Y"/><use transform="matrix(0.0087890625,0,0,0.0087890625,140.4228515625,0)" xlink:href="#Z"/><use transform="matrix(0.0087890625,0,0,0.0087890625,151.224609375,0)" xlink:href="#aa"/><use transform="matrix(0.0087890625,0,0,0.0087890625,162.0263671875,0)" xlink:href="#V"/><use transform="matrix(0.0087890625,0,0,0.0087890625,172.828125,0)" xlink:href="#ab"/><use transform="matrix(0.0087890625,0,0,0.0087890625,183.6298828125,0)" xlink:href="#ac"/><use transform="matrix(0.0087890625,0,0,0.0087890625,194.431640625,0)" xlink:href="#Q"/><use transform="matrix(0.0087890625,0,0,0.0087890625,205.2333984375,0)" xlink:href="#ad"/></g><path d="M410 425v-1909h547v139H590V286h367v139H410" id="ae"/><use transform="matrix(0.0087890625,0,0,0.0087890625,0,0)" xlink:href="#ae" id="f"/><path d="M52-101C46-14 166-7 216-51l9-45h-74l6-28h105l-18 87C217-12 181 4 130 4 60 4 18-31 18-101c0-106 78-167 188-146 30 6 48 27 59 54l-34 9c-10-26-31-41-67-40-75 1-107 50-112 123" id="af"/><path d="M187 0l-14-72H61L19 0h-37l149-248h38L221 0h-34zm-19-99l-22-123L76-99h92" id="ag"/><path d="M149-56L138 0h-32l11-56H2l5-25 144-167h35L154-81h33l-5 25h-33zm-4-147L40-81h82" id="ah"/><path d="M179 0l23-115H67L45 0H11l48-248h34L72-143h135l21-105h32L212 0h-33" id="ai"/><g id="g"><use transform="matrix(0.05,0,0,0.05,0,0)" xlink:href="#af"/><use transform="matrix(0.05,0,0,0.05,14,0)" xlink:href="#ag"/><use transform="matrix(0.05,0,0,0.05,26,0)" xlink:href="#ah"/><use transform="matrix(0.05,0,0,0.05,36,0)" xlink:href="#af"/><use transform="matrix(0.05,0,0,0.05,50,0)" xlink:href="#ai"/></g><path d="M44-68c0 29 11 47 38 47 30 0 42-19 51-41l28 9C148-21 126 4 82 4 31 4 10-29 12-85c3-77 74-140 146-93 12 8 15 23 18 40l-31 5c-1-22-13-36-36-36-52 0-65 49-65 101" id="aj"/><path d="M111-194c62-3 86 47 72 106H45c-7 38 6 69 45 68 27-1 43-14 53-32l24 11C152-15 129 4 87 4 38 3 12-23 12-71c0-70 32-119 99-123zm44 81c14-66-71-72-95-28-4 8-8 17-11 28h106" id="ak"/><path d="M55-144c13 50 104 24 104 88C159 21 15 23 1-39l26-10c6 40 102 42 102-4-13-50-104-23-104-87 0-71 143-71 148-8l-29 4c-5-35-85-37-89 0" id="al"/><g id="h"><use transform="matrix(0.05,0,0,0.05,0,0)" xlink:href="#ag"/><use transform="matrix(0.05,0,0,0.05,12,0)" xlink:href="#aj"/><use transform="matrix(0.05,0,0,0.05,21,0)" xlink:href="#aj"/><use transform="matrix(0.05,0,0,0.05,30,0)" xlink:href="#ak"/><use transform="matrix(0.05,0,0,0.05,40,0)" xlink:href="#al"/><use transform="matrix(0.05,0,0,0.05,49,0)" xlink:href="#al"/></g><path d="M151-220L108 0H75l42-220H32l6-28h203l-5 28h-85" id="am"/><path d="M30-147c31-64 166-65 159 27C183-49 158 1 86 4 9 8 1-88 30-147zM88-20c53 0 68-48 68-100 0-31-11-51-44-50-52 1-68 46-68 97 0 32 13 53 44 53" id="an"/><path d="M127 0L80-88 50-66 37 0H6l51-261h31L57-100l99-90h39l-93 82L161 0h-34" id="ao"/><path d="M67-158c22-48 132-52 116 29L158 0h-32l25-140c3-38-53-32-70-12C52-117 51-52 38 0H6l36-190h30" id="ap"/><g id="i"><use transform="matrix(0.05,0,0,0.05,0,0)" xlink:href="#am"/><use transform="matrix(0.05,0,0,0.05,9.3,0)" xlink:href="#an"/><use transform="matrix(0.05,0,0,0.05,19.3,0)" xlink:href="#ao"/><use transform="matrix(0.05,0,0,0.05,28.3,0)" xlink:href="#ak"/><use transform="matrix(0.05,0,0,0.05,38.3,0)" xlink:href="#ap"/></g><path d="M133-34C117-15 103 5 69 4 32 3 11-16 11-54c-1-60 55-63 116-61 1-26-3-47-28-47-18 1-26 9-28 27l-52-2c7-38 36-58 82-57s74 22 75 68l1 82c-1 14 12 18 25 15v27c-30 8-71 5-69-32zm-48 3c29 0 43-24 42-57-32 0-66-3-65 30 0 17 8 27 23 27" id="aq"/><path d="M137-138c1-29-70-34-71-4 15 46 118 7 119 86 1 83-164 76-172 9l43-7c4 19 20 25 44 25 33 8 57-30 24-41C81-84 22-81 20-136c-2-80 154-74 161-7" id="ar"/><path d="M135-194c53 0 70 44 70 98 0 56-19 98-73 100-31 1-45-17-59-34 3 33 2 69 2 105H25l-1-265h48c2 10 0 23 3 31 11-24 29-35 60-35zM114-30c33 0 39-31 40-66 0-38-9-64-40-64-56 0-55 130 0 130" id="as"/><path d="M110-194c64 0 96 36 96 99 0 64-35 99-97 99-61 0-95-36-95-99 0-62 34-99 96-99zm-1 164c35 0 45-28 45-65 0-40-10-65-43-65-34 0-45 26-45 65 0 36 10 65 43 65" id="at"/><path d="M135-150c-39-12-60 13-60 57V0H25l-1-190h47c2 13-1 29 3 40 6-28 27-53 61-41v41" id="au"/><path d="M115-3C79 11 28 4 28-45v-112H4v-33h27l15-45h31v45h36v33H77v99c-1 23 16 31 38 25v30" id="av"/><g id="j"><use transform="matrix(0.05,0,0,0.05,0,0)" xlink:href="#E"/><use transform="matrix(0.05,0,0,0.05,12,0)" xlink:href="#aq"/><use transform="matrix(0.05,0,0,0.05,22,0)" xlink:href="#ar"/><use transform="matrix(0.05,0,0,0.05,32,0)" xlink:href="#ar"/><use transform="matrix(0.05,0,0,0.05,42,0)" xlink:href="#as"/><use transform="matrix(0.05,0,0,0.05,52.95,0)" xlink:href="#at"/><use transform="matrix(0.05,0,0,0.05,63.900000000000006,0)" xlink:href="#au"/><use transform="matrix(0.05,0,0,0.05,70.9,0)" xlink:href="#av"/></g><path d="M147 0H94L2-248h55l64 206c17-72 42-137 63-206h54" id="aw"/><path d="M25-224v-37h50v37H25zM25 0v-190h50V0H25" id="ax"/><g id="k"><use transform="matrix(0.05,0,0,0.05,0,0)" xlink:href="#aw"/><use transform="matrix(0.05,0,0,0.05,11.65,0)" xlink:href="#ax"/><use transform="matrix(0.05,0,0,0.05,16.65,0)" xlink:href="#ar"/><use transform="matrix(0.05,0,0,0.05,26.649999999999995,0)" xlink:href="#aq"/></g><path d="M67-93c0 74 22 123 53 168H70C40 30 18-18 18-93s22-123 52-168h50c-32 44-53 94-53 168" id="ay"/><path d="M102-93c0 74-22 123-52 168H0C30 29 54-18 53-93c0-74-22-123-53-168h50c30 45 52 94 52 168" id="az"/><g id="l"><use transform="matrix(0.05,0,0,0.05,0,0)" xlink:href="#aw"/><use transform="matrix(0.05,0,0,0.05,12,0)" xlink:href="#O"/><use transform="matrix(0.05,0,0,0.05,17,0)" xlink:href="#G"/><use transform="matrix(0.05,0,0,0.05,29,0)" xlink:href="#F"/><use transform="matrix(0.05,0,0,0.05,41.95,0)" xlink:href="#ay"/><use transform="matrix(0.05,0,0,0.05,47.900000000000006,0)" xlink:href="#ar"/><use transform="matrix(0.05,0,0,0.05,57.900000000000006,0)" xlink:href="#az"/></g><path d="M745-142h380V0H143v-142h422v-798H246v-142h499v940zM545-1292v-192h200v192H545" id="aA"/><g id="m"><use transform="matrix(0.0087890625,0,0,0.0087890625,0,0)" xlink:href="#Q"/><use transform="matrix(0.0087890625,0,0,0.0087890625,10.8017578125,0)" xlink:href="#aA"/><use transform="matrix(0.0087890625,0,0,0.0087890625,21.603515625,0)" xlink:href="#X"/><use transform="matrix(0.0087890625,0,0,0.0087890625,32.4052734375,0)" xlink:href="#X"/><use transform="matrix(0.0087890625,0,0,0.0087890625,43.20703125,0)" xlink:href="#Q"/><use transform="matrix(0.0087890625,0,0,0.0087890625,54.0087890625,0)" xlink:href="#ad"/></g><path d="M528 20c-247 0-343-132-343-381v-721h180v686c-4 177 45 284 224 277 194-8 279-136 279-336v-627h181c3 360-6 732 6 1082H885c-4-54-7-126-8-185h-3C809-64 714 20 528 20" id="aB"/><path d="M365-904c58-129 161-200 334-200 130 0 228 46 293 138s98 233 98 420c0 189-34 331-102 425S824 20 698 20c-170 0-275-64-336-184 0 55-3 116-9 164H179c5-68 6-147 6-223v-1261h180c-2 193 4 394-4 580h4zm283 791c221 0 256-197 256-427 0-229-34-425-254-425-236 0-285 195-285 441 0 237 53 411 283 411" id="aC"/><g id="n"><use transform="matrix(0.0087890625,0,0,0.0087890625,0,0)" xlink:href="#Q"/><use transform="matrix(0.0087890625,0,0,0.0087890625,10.8017578125,0)" xlink:href="#X"/><use transform="matrix(0.0087890625,0,0,0.0087890625,21.603515625,0)" xlink:href="#aB"/><use transform="matrix(0.0087890625,0,0,0.0087890625,32.4052734375,0)" xlink:href="#aC"/><use transform="matrix(0.0087890625,0,0,0.0087890625,43.20703125,0)" xlink:href="#Q"/><use transform="matrix(0.0087890625,0,0,0.0087890625,54.0087890625,0)" xlink:href="#ad"/></g><path d="M496 0v-299h235V0H496" id="aD"/><g id="o"><use transform="matrix(0.0087890625,0,0,0.0087890625,0,0)" xlink:href="#aD"/><use transform="matrix(0.0087890625,0,0,0.0087890625,10.8017578125,0)" xlink:href="#aD"/><use transform="matrix(0.0087890625,0,0,0.0087890625,21.603515625,0)" xlink:href="#aD"/></g><g id="p"><use transform="matrix(0.0087890625,0,0,0.0087890625,0,0)" xlink:href="#Q"/><use transform="matrix(0.0087890625,0,0,0.0087890625,10.8017578125,0)" xlink:href="#R"/><use transform="matrix(0.0087890625,0,0,0.0087890625,21.603515625,0)" xlink:href="#S"/><use transform="matrix(0.0087890625,0,0,0.0087890625,32.4052734375,0)" xlink:href="#T"/><use transform="matrix(0.0087890625,0,0,0.0087890625,43.20703125,0)" xlink:href="#R"/><use transform="matrix(0.0087890625,0,0,0.0087890625,54.0087890625,0)" xlink:href="#U"/><use transform="matrix(0.0087890625,0,0,0.0087890625,64.810546875,0)" xlink:href="#V"/><use transform="matrix(0.0087890625,0,0,0.0087890625,75.6123046875,0)" xlink:href="#ab"/><use transform="matrix(0.0087890625,0,0,0.0087890625,86.4140625,0)" xlink:href="#aA"/><use transform="matrix(0.0087890625,0,0,0.0087890625,97.2158203125,0)" xlink:href="#X"/><use transform="matrix(0.0087890625,0,0,0.0087890625,108.017578125,0)" xlink:href="#S"/><use transform="matrix(0.0087890625,0,0,0.0087890625,118.8193359375,0)" xlink:href="#V"/><use transform="matrix(0.0087890625,0,0,0.0087890625,129.62109375,0)" xlink:href="#ab"/><use transform="matrix(0.0087890625,0,0,0.0087890625,140.4228515625,0)" xlink:href="#ac"/><use transform="matrix(0.0087890625,0,0,0.0087890625,151.224609375,0)" xlink:href="#Q"/><use transform="matrix(0.0087890625,0,0,0.0087890625,162.0263671875,0)" xlink:href="#ad"/></g><path d="M677 91c1 136 41 195 171 195h213v139H796c-186-8-294-116-294-303v-351c-3-164-120-222-275-232v-137c155-10 275-69 275-231v-352c6-189 106-303 294-303h265v139H848c-126-3-171 67-171 195v346c-5 158-108 234-231 274 128 36 231 115 231 274V91" id="aE"/><use transform="matrix(0.0087890625,0,0,0.0087890625,0,0)" xlink:href="#aE" id="q"/><path d="M726 122c-7 187-108 303-294 303H167V286h213c129-2 172-59 172-195v-347c5-160 106-236 230-276-125-36-230-116-230-272v-346c2-128-45-195-172-195H167v-139h265c187 7 294 114 294 303v352c4 162 120 221 275 231v137c-155 10-275 68-275 232v351" id="aF"/><use transform="matrix(0.0087890625,0,0,0.0087890625,0,0)" xlink:href="#aF" id="s"/><g id="t"><use transform="matrix(0.05,0,0,0.05,0,0)" xlink:href="#aw"/><use transform="matrix(0.05,0,0,0.05,12,0)" xlink:href="#O"/><use transform="matrix(0.05,0,0,0.05,17,0)" xlink:href="#G"/><use transform="matrix(0.05,0,0,0.05,29,0)" xlink:href="#F"/></g><path d="M182-130c37 4 62 22 62 59C244 23 116-4 24 0v-248c84 5 203-23 205 63 0 31-19 50-47 55zM76-148c40-3 101 13 101-30 0-44-60-28-101-31v61zm0 110c48-3 116 14 116-37 0-48-69-32-116-35v72" id="aG"/><path d="M24 0v-248h195v40H76v63h132v40H76v65h150V0H24" id="aH"/><g id="u"><use transform="matrix(0.05,0,0,0.05,0,0)" xlink:href="#H"/><use transform="matrix(0.05,0,0,0.05,14,0)" xlink:href="#aG"/><use transform="matrix(0.05,0,0,0.05,26.950000000000003,0)" xlink:href="#K"/><use transform="matrix(0.05,0,0,0.05,36.95,0)" xlink:href="#aH"/><use transform="matrix(0.05,0,0,0.05,48.95,0)" xlink:href="#M"/><use transform="matrix(0.05,0,0,0.05,61.900000000000006,0)" xlink:href="#J"/></g><path d="M168 279c222 39 310-114 368-290L66-1082h192c120 299 249 590 362 896 115-301 235-597 351-896h190L705 0c-65 164-130 320-275 396-67 36-177 35-262 18V279" id="aI"/><path d="M617-1102c355 0 481 238 477 599H322c5 222 84 388 301 388 144 0 244-59 284-166l158 45C1002-72 854 20 623 20c-342 0-490-220-490-568 0-346 151-554 484-554zm291 461c-18-192-90-328-289-328-194 0-287 128-295 328h584" id="aJ"/><g id="v"><use transform="matrix(0.0087890625,0,0,0.0087890625,0,0)" xlink:href="#Q"/><use transform="matrix(0.0087890625,0,0,0.0087890625,10.8017578125,0)" xlink:href="#aa"/><use transform="matrix(0.0087890625,0,0,0.0087890625,21.603515625,0)" xlink:href="#aI"/><use transform="matrix(0.0087890625,0,0,0.0087890625,32.4052734375,0)" xlink:href="#W"/><use transform="matrix(0.0087890625,0,0,0.0087890625,43.20703125,0)" xlink:href="#aJ"/><use transform="matrix(0.0087890625,0,0,0.0087890625,54.0087890625,0)" xlink:href="#Q"/><use transform="matrix(0.0087890625,0,0,0.0087890625,64.810546875,0)" xlink:href="#ad"/></g><path d="M865-914c-3-187-2-380-2-570h180v1261c0 76 1 155 6 223H877c-8-49-9-116-10-174h-5C801-44 708 26 530 26c-135 0-234-46-297-139s-95-232-95-419c0-377 131-566 392-566 176 0 271 63 335 184zm-286-51c-222 0-255 197-255 427 0 229 31 425 253 425 237 0 286-195 286-441 0-238-52-411-284-411" id="aK"/><g id="w"><use transform="matrix(0.0087890625,0,0,0.0087890625,0,0)" xlink:href="#Q"/><use transform="matrix(0.0087890625,0,0,0.0087890625,10.8017578125,0)" xlink:href="#S"/><use transform="matrix(0.0087890625,0,0,0.0087890625,21.603515625,0)" xlink:href="#X"/><use transform="matrix(0.0087890625,0,0,0.0087890625,32.4052734375,0)" xlink:href="#X"/><use transform="matrix(0.0087890625,0,0,0.0087890625,43.20703125,0)" xlink:href="#aJ"/><use transform="matrix(0.0087890625,0,0,0.0087890625,54.0087890625,0)" xlink:href="#Z"/><use transform="matrix(0.0087890625,0,0,0.0087890625,64.810546875,0)" xlink:href="#aa"/><use transform="matrix(0.0087890625,0,0,0.0087890625,75.6123046875,0)" xlink:href="#aJ"/><use transform="matrix(0.0087890625,0,0,0.0087890625,86.4140625,0)" xlink:href="#aK"/><use transform="matrix(0.0087890625,0,0,0.0087890625,97.2158203125,0)" xlink:href="#Q"/><use transform="matrix(0.0087890625,0,0,0.0087890625,108.017578125,0)" xlink:href="#ad"/></g><g id="x"><use transform="matrix(0.0087890625,0,0,0.0087890625,0,0)" xlink:href="#aD"/><use transform="matrix(0.0087890625,0,0,0.0087890625,10.8017578125,0)" xlink:href="#aD"/><use transform="matrix(0.0087890625,0,0,0.0087890625,21.603515625,0)" xlink:href="#aD"/></g><path d="M736-142h380V0H134v-142h422v-1200H267v-142h469v1342" id="aL"/><g id="y"><use transform="matrix(0.0087890625,0,0,0.0087890625,0,0)" xlink:href="#Q"/><use transform="matrix(0.0087890625,0,0,0.0087890625,10.8017578125,0)" xlink:href="#ab"/><use transform="matrix(0.0087890625,0,0,0.0087890625,21.603515625,0)" xlink:href="#S"/><use transform="matrix(0.0087890625,0,0,0.0087890625,32.4052734375,0)" xlink:href="#aL"/><use transform="matrix(0.0087890625,0,0,0.0087890625,43.20703125,0)" xlink:href="#aB"/><use transform="matrix(0.0087890625,0,0,0.0087890625,54.0087890625,0)" xlink:href="#aJ"/><use transform="matrix(0.0087890625,0,0,0.0087890625,64.810546875,0)" xlink:href="#Q"/><use transform="matrix(0.0087890625,0,0,0.0087890625,75.6123046875,0)" xlink:href="#ad"/></g><path d="M631 20c-350 0-501-215-501-562 0-355 162-560 502-560 250 0 399 118 446 323l-192 14c-23-124-109-196-262-196-242 0-305 171-305 415 1 245 61 427 304 427 151 0 248-77 267-215l190 12C1039-107 883 20 631 20" id="aM"/><g id="z"><use transform="matrix(0.0087890625,0,0,0.0087890625,0,0)" xlink:href="#Q"/><use transform="matrix(0.0087890625,0,0,0.0087890625,10.8017578125,0)" xlink:href="#X"/><use transform="matrix(0.0087890625,0,0,0.0087890625,21.603515625,0)" xlink:href="#Y"/><use transform="matrix(0.0087890625,0,0,0.0087890625,32.4052734375,0)" xlink:href="#aB"/><use transform="matrix(0.0087890625,0,0,0.0087890625,43.20703125,0)" xlink:href="#Z"/><use transform="matrix(0.0087890625,0,0,0.0087890625,54.0087890625,0)" xlink:href="#aM"/><use transform="matrix(0.0087890625,0,0,0.0087890625,64.810546875,0)" xlink:href="#aJ"/><use transform="matrix(0.0087890625,0,0,0.0087890625,75.6123046875,0)" xlink:href="#Q"/><use transform="matrix(0.0087890625,0,0,0.0087890625,86.4140625,0)" xlink:href="#ad"/></g><g id="A"><use transform="matrix(0.0087890625,0,0,0.0087890625,0,0)" xlink:href="#aD"/><use transform="matrix(0.0087890625,0,0,0.0087890625,10.8017578125,0)" xlink:href="#aD"/><use transform="matrix(0.0087890625,0,0,0.0087890625,21.603515625,0)" xlink:href="#aD"/></g><path d="M24-248c120-7 223 5 221 122C244-46 201 0 124 0H24v-248zM76-40c74 7 117-18 117-86 0-67-45-88-117-82v168" id="aN"/><path d="M175 0L67-191c6 58 2 128 3 191H24v-248h59L193-55c-6-58-2-129-3-193h46V0h-61" id="aO"/><path d="M146-102V0H94v-102L6-248h54l60 105 60-105h54" id="aP"/><g id="B"><use transform="matrix(0.05,0,0,0.05,0,0)" xlink:href="#O"/><use transform="matrix(0.05,0,0,0.05,5,0)" xlink:href="#aN"/><use transform="matrix(0.05,0,0,0.05,17.950000000000003,0)" xlink:href="#aH"/><use transform="matrix(0.05,0,0,0.05,29.950000000000003,0)" xlink:href="#aO"/><use transform="matrix(0.05,0,0,0.05,42.900000000000006,0)" xlink:href="#J"/><use transform="matrix(0.05,0,0,0.05,53.85,0)" xlink:href="#O"/><use transform="matrix(0.05,0,0,0.05,58.85,0)" xlink:href="#J"/><use transform="matrix(0.05,0,0,0.05,69.80000000000001,0)" xlink:href="#aP"/></g><g id="C"><use transform="matrix(0.05,0,0,0.05,0,0)" xlink:href="#J"/><use transform="matrix(0.05,0,0,0.05,10.950000000000001,0)" xlink:href="#aP"/><use transform="matrix(0.05,0,0,0.05,22.950000000000003,0)" xlink:href="#E"/><use transform="matrix(0.05,0,0,0.05,34.95,0)" xlink:href="#aH"/></g><path d="M270 425V286h367v-1631H270v-139h547V425H270" id="aQ"/><use transform="matrix(0.0087890625,0,0,0.0087890625,0,0)" xlink:href="#aQ" id="D"/></defs></g></svg>