<svg xmlns="http://www.w3.org/2000/svg" xmlns:xlink="http://www.w3.org/1999/xlink" xmlns:lucid="lucid" width="831.5" height="170.08"><g transform="translate(0 0)" lucid:page-tab-id="0_0"><path d="M280 131.05c0 7.3-30.43 13.2-67.97 13.2s-67.97-5.9-67.97-13.2V25.45c0-7.3 30.43-13.2 67.97-13.2S280 18.15 280 25.45z" stroke="#000" stroke-width="2" fill="#dfeef7"/><path d="M280 25.45c0 7.3-30.43 13.2-67.97 13.2s-67.97-5.9-67.97-13.2" stroke="#000" stroke-width="2" fill="none"/><use xlink:href="#a" transform="matrix(1,0,0,1,149.0625,43.650000000000006) translate(3.75 20.4)"/><use xlink:href="#b" transform="matrix(1,0,0,1,149.0625,43.650000000000006) translate(85.60000000000001 20.4)"/><use xlink:href="#c" transform="matrix(1,0,0,1,149.0625,43.650000000000006) translate(21.599999999999994 42)"/><use xlink:href="#d" transform="matrix(1,0,0,1,149.0625,43.650000000000006) translate(16.124999999999993 63.6)"/><use xlink:href="#e" transform="matrix(1,0,0,1,149.0625,43.650000000000006) translate(34.555 85.20000000000002)"/><path d="M338.27 45.05c0-8.28 6.72-15 15-15h90c8.3 0 15 6.72 15 15v66.4c0 8.28-6.7 15-15 15h-90c-8.28 0-15-6.72-15-15z" stroke="#000" stroke-width="2" fill="#c1e4f7"/><use xlink:href="#f" transform="matrix(1,0,0,1,343.27263779527556,35.04999999999999) translate(16.574999999999996 14.4)"/><use xlink:href="#b" transform="matrix(1,0,0,1,343.27263779527556,35.04999999999999) translate(36.675 36)"/><use xlink:href="#g" transform="matrix(1,0,0,1,343.27263779527556,35.04999999999999) translate(13.599999999999994 57.6)"/><use xlink:href="#e" transform="matrix(1,0,0,1,343.27263779527556,35.04999999999999) translate(26.549999999999997 79.20000000000002)"/><path d="M513.6 45.05c0-8.28 6.7-15 15-15h90c8.27 0 15 6.72 15 15v66.4c0 8.28-6.73 15-15 15h-90c-8.3 0-15-6.72-15-15z" stroke="#000" stroke-width="2" fill="#ffeca9"/><use xlink:href="#f" transform="matrix(1,0,0,1,518.5851377952756,35.04999999999999) translate(16.574999999999996 25.275)"/><use xlink:href="#h" transform="matrix(1,0,0,1,518.5851377952756,35.04999999999999) translate(26.049999999999997 46.875)"/><use xlink:href="#e" transform="matrix(1,0,0,1,518.5851377952756,35.04999999999999) translate(26.549999999999997 68.47500000000001)"/><path d="M688.9 45.05c0-8.28 6.7-15 15-15h100c8.28 0 15 6.72 15 15v66.4c0 8.28-6.72 15-15 15h-100c-8.3 0-15-6.72-15-15z" stroke="#000" stroke-width="2" fill="#d1bcd2"/><use xlink:href="#f" transform="matrix(1,0,0,1,693.8976377952756,35.04999999999999) translate(21.574999999999996 25.5)"/><use xlink:href="#i" transform="matrix(1,0,0,1,693.8976377952756,35.04999999999999) translate(-2.3500000000000085 47.1)"/><use xlink:href="#e" transform="matrix(1,0,0,1,693.8976377952756,35.04999999999999) translate(31.549999999999997 68.7)"/><path d="M94.72 99.27h-2.1V56.5c0-1.24-1.13-2.25-2.56-2.25H54.44c-1.43 0-2.57 1-2.57 2.26v42.77h-2.1c-.7 0-1.27.48-1.27 1.1v1.88H96v-1.87c0-.63-.57-1.1-1.28-1.1zM62.1 61.35c-.02-.62.55-1.1 1.27-1.1h4.23c.7 0 1.28.48 1.28 1.1v3.8c0 .62-.57 1.1-1.28 1.1h-4.23c-.7 0-1.28-.48-1.28-1.1l-.02-3.8zm-.02 9.03c0-.63.58-1.1 1.3-1.1h4.2c.73 0 1.3.47 1.3 1.1v3.74c0 .63-.57 1.15-1.28 1.15h-4.23c-.7 0-1.28-.52-1.28-1.15l-.02-3.74zm5.52 13.87h-4.23c-.7 0-1.28-.48-1.28-1.1l-.02-3.8c0-.62.58-1.1 1.3-1.1h4.2c.73 0 1.3.48 1.3 1.1v3.8c0 .62-.57 1.1-1.28 1.1zm8.02 15.02h-6.74v-7.92c0-.62.57-1.1 1.23-1.1h4.3c.65 0 1.22.48 1.22 1.1v7.92zm6.8-16.12c0 .62-.58 1.1-1.3 1.1H76.9c-.7 0-1.28-.48-1.28-1.1v-3.8c0-.62.57-1.1 1.28-1.1h4.23c.72 0 1.28.48 1.28 1.1v3.8zm0-9.03c0 .63-.58 1.15-1.3 1.15H76.9c-.7 0-1.28-.52-1.28-1.15v-3.74c0-.63.57-1.1 1.28-1.1h4.23c.72 0 1.28.47 1.28 1.1v3.74zm0-8.97c0 .62-.58 1.1-1.3 1.1H76.9c-.7 0-1.28-.48-1.28-1.1v-3.8c0-.62.57-1.1 1.28-1.1h4.23c.72 0 1.28.48 1.28 1.1v3.8zM34.25 61.25c4.5 0 8.15-4.7 8.15-10.5s-3.65-10.5-8.15-10.5-8.15 4.7-8.15 10.5 3.65 10.5 8.15 10.5zm5.7 2.65H38.9c-1.43.8-3 1.3-4.65 1.3-1.65 0-3.22-.5-4.65-1.3h-1.05c-4.73 0-8.55 4.9-8.55 11v3.4c0 2.2 1.37 3.95 3.05 3.95h22.4c1.68 0 3.05-1.76 3.05-3.95v-3.4c0-6.1-3.82-11-8.55-11z" stroke="#000" stroke-opacity="0" stroke-width=".29"/><path d="M93.63 78.25H124.55" stroke="#000" stroke-width="2" fill="none"/><path d="M93.65 79.25h-1.02v-2h1.02z"/><path d="M139.83 78.25l-14.27 4.64v-9.3z" stroke="#000" stroke-width="2"/><path d="M282 78.25h36.77" stroke="#000" stroke-width="2" fill="none"/><path d="M282.03 79.25H281v-2h1.03z"/><path d="M334.04 78.25l-14.27 4.64v-9.3z" stroke="#000" stroke-width="2"/><path d="M460.27 78.25h33.8" stroke="#000" stroke-width="2" fill="none"/><path d="M460.3 79.25h-1.03v-2h1.03z"/><path d="M509.35 78.25l-14.27 4.64v-9.3z" stroke="#000" stroke-width="2"/><path d="M635.6 78.25h33.8" stroke="#c92d39" stroke-width="2" fill="none"/><path d="M635.6 79.25h-1v-2h1z" fill="#c92d39"/><path d="M684.66 78.25L670.4 82.9v-9.3z" stroke="#c92d39" stroke-width="2" fill="#c92d39"/><path d="M0 97.85h144.06v74.8H0z" stroke="#000" stroke-opacity="0" stroke-width="2" fill="#fff" fill-opacity="0"/><use xlink:href="#a" transform="matrix(1,0,0,1,5,102.85) translate(8.25 14.4)"/><use xlink:href="#b" transform="matrix(1,0,0,1,5,102.85) translate(90.10000000000001 14.4)"/><use xlink:href="#j" transform="matrix(1,0,0,1,5,102.85) translate(26.099999999999994 36)"/><use xlink:href="#k" transform="matrix(1,0,0,1,5,102.85) translate(21.574999999999996 57.6)"/><use xlink:href="#l" transform="matrix(1,0,0,1,5,102.85) translate(87.475 57.6)"/><path d="M118.03 78.25c0 5.52-4.48 10-10 10s-10-4.48-10-10 4.48-10 10-10 10 4.48 10 10z" stroke="#000" stroke-width="2"/><use xlink:href="#m" transform="matrix(1,0,0,1,98.03125,68.25) translate(5.555555555555555 12.666666666666668)"/><path d="M310.03 78.25c0 5.52-4.48 10-10 10s-10-4.48-10-10 4.48-10 10-10 10 4.48 10 10z" stroke="#000" stroke-width="2"/><use xlink:href="#m" transform="matrix(1,0,0,1,290.03125,68.25000000000001) translate(5.555555555555555 12.666666666666668)"/><path d="M486.5 78.25c0 5.52-4.46 10-10 10-5.5 0-10-4.48-10-10s4.5-10 10-10c5.54 0 10 4.48 10 10z" stroke="#000" stroke-width="2"/><g><use xlink:href="#m" transform="matrix(1,0,0,1,466.5140255905511,68.25000000000001) translate(5.555555555555555 12.666666666666668)"/></g><path d="M662 78.25c0 5.52-4.48 10-10 10s-10-4.48-10-10 4.48-10 10-10 10 4.48 10 10z" stroke="#c92d39" stroke-width="2" fill="#c92d39"/><g><use xlink:href="#n" transform="matrix(1,0,0,1,642,68.25000000000001) translate(5.555555555555555 12.666666666666668)"/></g><path d="M628 29.25h64.5v40H628z" stroke="#000" stroke-opacity="0" stroke-width="2" fill="#fff" fill-opacity="0"/><g><use xlink:href="#o" transform="matrix(1,0,0,1,633,34.25) translate(4.185185185185183 10.666666666666668)"/><use xlink:href="#p" transform="matrix(1,0,0,1,633,34.25) translate(0.8333333333333321 26.666666666666668)"/><use xlink:href="#q" transform="matrix(1,0,0,1,633,34.25) translate(26.018518518518515 26.666666666666668)"/></g><path d="M640 160.08c0 5.52-4.48 10-10 10s-10-4.48-10-10 4.48-10 10-10 10 4.48 10 10z" stroke="#c92d39" stroke-width="2" fill="#c92d39"/><g><use xlink:href="#n" transform="matrix(1,0,0,1,620,150.07874015748033) translate(5.555555555555555 12.666666666666668)"/></g><path d="M640 146.65h196.4v26.85H640z" stroke="#000" stroke-opacity="0" stroke-width="2" fill="#fff" fill-opacity="0"/><g><use xlink:href="#r" transform="matrix(1,0,0,1,645,151.65374015746633) translate(0 11.729166666666668)"/><use xlink:href="#s" transform="matrix(1,0,0,1,645,151.65374015746633) translate(11.481481481481483 11.729166666666668)"/><use xlink:href="#t" transform="matrix(1,0,0,1,645,151.65374015746633) translate(43.333333333333336 11.729166666666668)"/><use xlink:href="#u" transform="matrix(1,0,0,1,645,151.65374015746633) translate(103.96296296296296 11.729166666666668)"/></g><path d="M280 160.08c0 5.52-4.48 10-10 10s-10-4.48-10-10 4.48-10 10-10 10 4.48 10 10z" stroke="#000" stroke-width="2"/><g><use xlink:href="#m" transform="matrix(1,0,0,1,260,150.07874015748033) translate(5.555555555555555 12.666666666666668)"/></g><path d="M280 146.65h260v26H280z" stroke="#000" stroke-opacity="0" stroke-width="2" fill="#fff" fill-opacity="0"/><g><use xlink:href="#r" transform="matrix(1,0,0,1,285,151.65374015746633) translate(0 12.666666666666668)"/><use xlink:href="#v" transform="matrix(1,0,0,1,285,151.65374015746633) translate(11.481481481481483 12.666666666666668)"/><use xlink:href="#w" transform="matrix(1,0,0,1,285,151.65374015746633) translate(78.74074074074076 12.666666666666668)"/><use xlink:href="#x" transform="matrix(1,0,0,1,285,151.65374015746633) translate(123.85185185185188 12.666666666666668)"/><use xlink:href="#u" transform="matrix(1,0,0,1,285,151.65374015746633) translate(180.0740740740741 12.666666666666668)"/></g><defs><path d="M24-248c93 1 206-16 204 79-1 75-69 88-152 82V0H24v-248zm52 121c47 0 100 7 100-41 0-47-54-39-100-39v80" id="y"/><path d="M133-34C117-15 103 5 69 4 32 3 11-16 11-54c-1-60 55-63 116-61 1-26-3-47-28-47-18 1-26 9-28 27l-52-2c7-38 36-58 82-57s74 22 75 68l1 82c-1 14 12 18 25 15v27c-30 8-71 5-69-32zm-48 3c29 0 43-24 42-57-32 0-66-3-65 30 0 17 8 27 23 27" id="z"/><path d="M137-138c1-29-70-34-71-4 15 46 118 7 119 86 1 83-164 76-172 9l43-7c4 19 20 25 44 25 33 8 57-30 24-41C81-84 22-81 20-136c-2-80 154-74 161-7" id="A"/><path d="M135-194c53 0 70 44 70 98 0 56-19 98-73 100-31 1-45-17-59-34 3 33 2 69 2 105H25l-1-265h48c2 10 0 23 3 31 11-24 29-35 60-35zM114-30c33 0 39-31 40-66 0-38-9-64-40-64-56 0-55 130 0 130" id="B"/><path d="M110-194c64 0 96 36 96 99 0 64-35 99-97 99-61 0-95-36-95-99 0-62 34-99 96-99zm-1 164c35 0 45-28 45-65 0-40-10-65-43-65-34 0-45 26-45 65 0 36 10 65 43 65" id="C"/><path d="M135-150c-39-12-60 13-60 57V0H25l-1-190h47c2 13-1 29 3 40 6-28 27-53 61-41v41" id="D"/><path d="M115-3C79 11 28 4 28-45v-112H4v-33h27l15-45h31v45h36v33H77v99c-1 23 16 31 38 25v30" id="E"/><g id="a"><use transform="matrix(0.05,0,0,0.05,0,0)" xlink:href="#y"/><use transform="matrix(0.05,0,0,0.05,12,0)" xlink:href="#z"/><use transform="matrix(0.05,0,0,0.05,22,0)" xlink:href="#A"/><use transform="matrix(0.05,0,0,0.05,32,0)" xlink:href="#A"/><use transform="matrix(0.05,0,0,0.05,42,0)" xlink:href="#B"/><use transform="matrix(0.05,0,0,0.05,52.95,0)" xlink:href="#C"/><use transform="matrix(0.05,0,0,0.05,63.900000000000006,0)" xlink:href="#D"/><use transform="matrix(0.05,0,0,0.05,70.9,0)" xlink:href="#E"/></g><path d="M147 0H94L2-248h55l64 206c17-72 42-137 63-206h54" id="F"/><path d="M25-224v-37h50v37H25zM25 0v-190h50V0H25" id="G"/><g id="b"><use transform="matrix(0.05,0,0,0.05,0,0)" xlink:href="#F"/><use transform="matrix(0.05,0,0,0.05,11.65,0)" xlink:href="#G"/><use transform="matrix(0.05,0,0,0.05,16.65,0)" xlink:href="#A"/><use transform="matrix(0.05,0,0,0.05,26.649999999999995,0)" xlink:href="#z"/></g><path d="M199 0l-22-63H83L61 0H9l90-248h61L250 0h-51zm-33-102l-36-108c-10 38-24 72-36 108h72" id="H"/><path d="M185-48c-13 30-37 53-82 52C43 2 14-33 14-96s30-98 90-98c62 0 83 45 84 108H66c0 31 8 55 39 56 18 0 30-7 34-22zm-45-69c5-46-57-63-70-21-2 6-4 13-4 21h74" id="I"/><path d="M135-194c87-1 58 113 63 194h-50c-7-57 23-157-34-157-59 0-34 97-39 157H25l-1-190h47c2 12-1 28 3 38 12-26 28-41 61-42" id="J"/><g id="c"><use transform="matrix(0.05,0,0,0.05,0,0)" xlink:href="#H"/><use transform="matrix(0.05,0,0,0.05,12.950000000000001,0)" xlink:href="#A"/><use transform="matrix(0.05,0,0,0.05,22.950000000000003,0)" xlink:href="#A"/><use transform="matrix(0.05,0,0,0.05,32.95,0)" xlink:href="#I"/><use transform="matrix(0.05,0,0,0.05,42.95,0)" xlink:href="#D"/><use transform="matrix(0.05,0,0,0.05,49.95,0)" xlink:href="#E"/><use transform="matrix(0.05,0,0,0.05,55.900000000000006,0)" xlink:href="#G"/><use transform="matrix(0.05,0,0,0.05,60.900000000000006,0)" xlink:href="#C"/><use transform="matrix(0.05,0,0,0.05,71.85000000000001,0)" xlink:href="#J"/></g><path d="M240-174c0 40-23 61-54 70L253 0h-59l-57-94H76V0H24v-248c93 4 217-23 216 74zM76-134c48-2 112 12 112-38 0-48-66-32-112-35v73" id="K"/><path d="M123 10C108 53 80 86 19 72V37c35 8 53-11 59-39L3-190h52l48 148c12-52 28-100 44-148h51" id="L"/><g id="d"><use transform="matrix(0.05,0,0,0.05,0,0)" xlink:href="#K"/><use transform="matrix(0.05,0,0,0.05,12.950000000000001,0)" xlink:href="#I"/><use transform="matrix(0.05,0,0,0.05,22.950000000000003,0)" xlink:href="#B"/><use transform="matrix(0.05,0,0,0.05,33.900000000000006,0)" xlink:href="#C"/><use transform="matrix(0.05,0,0,0.05,44.85000000000001,0)" xlink:href="#A"/><use transform="matrix(0.05,0,0,0.05,54.85,0)" xlink:href="#G"/><use transform="matrix(0.05,0,0,0.05,59.85,0)" xlink:href="#E"/><use transform="matrix(0.05,0,0,0.05,65.80000000000001,0)" xlink:href="#C"/><use transform="matrix(0.05,0,0,0.05,76.75000000000001,0)" xlink:href="#D"/><use transform="matrix(0.05,0,0,0.05,83.75000000000001,0)" xlink:href="#L"/></g><path d="M135-143c-3-34-86-38-87 0 15 53 115 12 119 90S17 21 10-45l28-5c4 36 97 45 98 0-10-56-113-15-118-90-4-57 82-63 122-42 12 7 21 19 24 35" id="M"/><path d="M100-194c63 0 86 42 84 106H49c0 40 14 67 53 68 26 1 43-12 49-29l28 8c-11 28-37 45-77 45C44 4 14-33 15-96c1-61 26-98 85-98zm52 81c6-60-76-77-97-28-3 7-6 17-6 28h103" id="N"/><path d="M114-163C36-179 61-72 57 0H25l-1-190h30c1 12-1 29 2 39 6-27 23-49 58-41v29" id="O"/><path d="M108 0H70L1-190h34L89-25l56-165h34" id="P"/><path d="M24-231v-30h32v30H24zM24 0v-190h32V0H24" id="Q"/><path d="M96-169c-40 0-48 33-48 73s9 75 48 75c24 0 41-14 43-38l32 2c-6 37-31 61-74 61-59 0-76-41-82-99-10-93 101-131 147-64 4 7 5 14 7 22l-32 3c-4-21-16-35-41-35" id="R"/><g id="e"><use transform="matrix(0.05,0,0,0.05,0,0)" xlink:href="#M"/><use transform="matrix(0.05,0,0,0.05,9,0)" xlink:href="#N"/><use transform="matrix(0.05,0,0,0.05,19,0)" xlink:href="#O"/><use transform="matrix(0.05,0,0,0.05,24.95,0)" xlink:href="#P"/><use transform="matrix(0.05,0,0,0.05,33.95,0)" xlink:href="#Q"/><use transform="matrix(0.05,0,0,0.05,37.900000000000006,0)" xlink:href="#R"/><use transform="matrix(0.05,0,0,0.05,46.900000000000006,0)" xlink:href="#N"/></g><g id="f"><use transform="matrix(0.05,0,0,0.05,0,0)" xlink:href="#y"/><use transform="matrix(0.05,0,0,0.05,12,0)" xlink:href="#z"/><use transform="matrix(0.05,0,0,0.05,22,0)" xlink:href="#A"/><use transform="matrix(0.05,0,0,0.05,32,0)" xlink:href="#A"/><use transform="matrix(0.05,0,0,0.05,42,0)" xlink:href="#B"/><use transform="matrix(0.05,0,0,0.05,52.95,0)" xlink:href="#C"/><use transform="matrix(0.05,0,0,0.05,63.900000000000006,0)" xlink:href="#D"/><use transform="matrix(0.05,0,0,0.05,70.9,0)" xlink:href="#E"/></g><path d="M169-182c-1-43-94-46-97-3 18 66 151 10 154 114 3 95-165 93-204 36-6-8-10-19-12-30l50-8c3 46 112 56 116 5-17-69-150-10-154-114-4-87 153-88 188-35 5 8 8 18 10 28" id="S"/><path d="M195-6C206 82 75 100 31 46c-4-6-6-13-8-21l49-6c3 16 16 24 34 25 40 0 42-37 40-79-11 22-30 35-61 35-53 0-70-43-70-97 0-56 18-96 73-97 30 0 46 14 59 34l2-30h47zm-90-29c32 0 41-27 41-63 0-35-9-62-40-62-32 0-39 29-40 63 0 36 9 62 39 62" id="T"/><g id="g"><use transform="matrix(0.05,0,0,0.05,0,0)" xlink:href="#S"/><use transform="matrix(0.05,0,0,0.05,12,0)" xlink:href="#G"/><use transform="matrix(0.05,0,0,0.05,17,0)" xlink:href="#T"/><use transform="matrix(0.05,0,0,0.05,27.950000000000003,0)" xlink:href="#J"/><use transform="matrix(0.05,0,0,0.05,38.900000000000006,0)" xlink:href="#z"/><use transform="matrix(0.05,0,0,0.05,48.900000000000006,0)" xlink:href="#E"/><use transform="matrix(0.05,0,0,0.05,54.85,0)" xlink:href="#C"/><use transform="matrix(0.05,0,0,0.05,65.80000000000001,0)" xlink:href="#D"/><use transform="matrix(0.05,0,0,0.05,72.80000000000001,0)" xlink:href="#L"/></g><path d="M182-130c37 4 62 22 62 59C244 23 116-4 24 0v-248c84 5 203-23 205 63 0 31-19 50-47 55zM76-148c40-3 101 13 101-30 0-44-60-28-101-31v61zm0 110c48-3 116 14 116-37 0-48-69-32-116-35v72" id="U"/><path d="M147 0L96-86 75-71V0H25v-261h50v150l67-79h53l-66 74L201 0h-54" id="V"/><g id="h"><use transform="matrix(0.05,0,0,0.05,0,0)" xlink:href="#U"/><use transform="matrix(0.05,0,0,0.05,12.950000000000001,0)" xlink:href="#D"/><use transform="matrix(0.05,0,0,0.05,19.950000000000003,0)" xlink:href="#C"/><use transform="matrix(0.05,0,0,0.05,30.900000000000006,0)" xlink:href="#V"/><use transform="matrix(0.05,0,0,0.05,40.900000000000006,0)" xlink:href="#I"/><use transform="matrix(0.05,0,0,0.05,50.900000000000006,0)" xlink:href="#D"/></g><path d="M67-125c0 53 21 87 73 88 37 1 54-22 65-47l45 17C233-25 199 4 140 4 58 4 20-42 15-125 8-235 124-281 211-232c18 10 29 29 36 50l-46 12c-8-25-30-41-62-41-52 0-71 34-72 86" id="W"/><path d="M25 0v-261h50V0H25" id="X"/><path d="M114-157C55-157 80-60 75 0H25v-261h50l-1 109c12-26 28-41 61-42 86-1 58 113 63 194h-50c-7-57 23-157-34-157" id="Y"/><path d="M85 4C-2 5 27-109 22-190h50c7 57-23 150 33 157 60-5 35-97 40-157h50l1 190h-47c-2-12 1-28-3-38-12 25-28 42-61 42" id="Z"/><g id="i"><use transform="matrix(0.05,0,0,0.05,0,0)" xlink:href="#W"/><use transform="matrix(0.05,0,0,0.05,12.950000000000001,0)" xlink:href="#X"/><use transform="matrix(0.05,0,0,0.05,17.950000000000003,0)" xlink:href="#I"/><use transform="matrix(0.05,0,0,0.05,27.950000000000003,0)" xlink:href="#z"/><use transform="matrix(0.05,0,0,0.05,37.95,0)" xlink:href="#D"/><use transform="matrix(0.05,0,0,0.05,44.95,0)" xlink:href="#G"/><use transform="matrix(0.05,0,0,0.05,49.95,0)" xlink:href="#J"/><use transform="matrix(0.05,0,0,0.05,60.900000000000006,0)" xlink:href="#T"/><use transform="matrix(0.05,0,0,0.05,71.85000000000001,0)" xlink:href="#Y"/><use transform="matrix(0.05,0,0,0.05,82.80000000000001,0)" xlink:href="#C"/><use transform="matrix(0.05,0,0,0.05,93.75000000000001,0)" xlink:href="#Z"/><use transform="matrix(0.05,0,0,0.05,104.7,0)" xlink:href="#A"/><use transform="matrix(0.05,0,0,0.05,114.7,0)" xlink:href="#I"/></g><g id="j"><use transform="matrix(0.05,0,0,0.05,0,0)" xlink:href="#H"/><use transform="matrix(0.05,0,0,0.05,12.950000000000001,0)" xlink:href="#A"/><use transform="matrix(0.05,0,0,0.05,22.950000000000003,0)" xlink:href="#A"/><use transform="matrix(0.05,0,0,0.05,32.95,0)" xlink:href="#I"/><use transform="matrix(0.05,0,0,0.05,42.95,0)" xlink:href="#D"/><use transform="matrix(0.05,0,0,0.05,49.95,0)" xlink:href="#E"/><use transform="matrix(0.05,0,0,0.05,55.900000000000006,0)" xlink:href="#G"/><use transform="matrix(0.05,0,0,0.05,60.900000000000006,0)" xlink:href="#C"/><use transform="matrix(0.05,0,0,0.05,71.85000000000001,0)" xlink:href="#J"/></g><path d="M190-63c-7 42-38 67-86 67-59 0-84-38-90-98-12-110 154-137 174-36l-49 2c-2-19-15-32-35-32-30 0-35 28-38 64-6 74 65 87 74 30" id="aa"/><g id="k"><use transform="matrix(0.05,0,0,0.05,0,0)" xlink:href="#S"/><use transform="matrix(0.05,0,0,0.05,12,0)" xlink:href="#C"/><use transform="matrix(0.05,0,0,0.05,22.950000000000003,0)" xlink:href="#Z"/><use transform="matrix(0.05,0,0,0.05,33.900000000000006,0)" xlink:href="#D"/><use transform="matrix(0.05,0,0,0.05,40.900000000000006,0)" xlink:href="#aa"/><use transform="matrix(0.05,0,0,0.05,50.900000000000006,0)" xlink:href="#I"/></g><path d="M100-194c62-1 85 37 85 99 1 63-27 99-86 99S16-35 15-95c0-66 28-99 85-99zM99-20c44 1 53-31 53-75 0-43-8-75-51-75s-53 32-53 75 10 74 51 75" id="ab"/><path d="M177-190C167-65 218 103 67 71c-23-6-38-20-44-43l32-5c15 47 100 32 89-28v-30C133-14 115 1 83 1 29 1 15-40 15-95c0-56 16-97 71-98 29-1 48 16 59 35 1-10 0-23 2-32h30zM94-22c36 0 50-32 50-73 0-42-14-75-50-75-39 0-46 34-46 75s6 73 46 73" id="ac"/><g id="l"><use transform="matrix(0.05,0,0,0.05,0,0)" xlink:href="#ab"/><use transform="matrix(0.05,0,0,0.05,10,0)" xlink:href="#O"/><use transform="matrix(0.05,0,0,0.05,15.949999999999998,0)" xlink:href="#ac"/></g><path fill="#fff" d="M24-248c93 1 206-16 204 79-1 75-69 88-152 82V0H24v-248zm52 121c47 0 100 7 100-41 0-47-54-39-100-39v80" id="ad"/><use transform="matrix(0.03703703703703704,0,0,0.03703703703703704,0,0)" xlink:href="#ad" id="m"/><path fill="#fff" d="M169-182c-1-43-94-46-97-3 18 66 151 10 154 114 3 95-165 93-204 36-6-8-10-19-12-30l50-8c3 46 112 56 116 5-17-69-150-10-154-114-4-87 153-88 188-35 5 8 8 18 10 28" id="ae"/><use transform="matrix(0.03703703703703704,0,0,0.03703703703703704,0,0)" xlink:href="#ae" id="n"/><path d="M143 4C61 4 22-44 18-125c-5-107 100-154 193-111 17 8 29 25 37 43l-32 9c-13-25-37-40-76-40-61 0-88 39-88 99 0 61 29 100 91 101 35 0 62-11 79-27v-45h-74v-28h105v86C228-13 192 4 143 4" id="af"/><path d="M205 0l-28-72H64L36 0H1l101-248h38L239 0h-34zm-38-99l-47-123c-12 45-31 82-46 123h93" id="ag"/><path d="M155-56V0h-30v-56H8v-25l114-167h33v167h35v25h-35zm-30-156c-27 46-58 90-88 131h88v-131" id="ah"/><path d="M197 0v-115H63V0H30v-248h33v105h134v-105h34V0h-34" id="ai"/><g id="o"><use transform="matrix(0.03703703703703704,0,0,0.03703703703703704,0,0)" xlink:href="#af"/><use transform="matrix(0.03703703703703704,0,0,0.03703703703703704,10.370370370370372,0)" xlink:href="#ag"/><use transform="matrix(0.03703703703703704,0,0,0.03703703703703704,19.259259259259256,0)" xlink:href="#ah"/><use transform="matrix(0.03703703703703704,0,0,0.03703703703703704,26.666666666666664,0)" xlink:href="#af"/><use transform="matrix(0.03703703703703704,0,0,0.03703703703703704,37.03703703703704,0)" xlink:href="#ai"/></g><path d="M33 0v-248h34V0H33" id="aj"/><g id="p"><use transform="matrix(0.03703703703703704,0,0,0.03703703703703704,0,0)" xlink:href="#ag"/><use transform="matrix(0.03703703703703704,0,0,0.03703703703703704,8.88888888888889,0)" xlink:href="#ag"/><use transform="matrix(0.03703703703703704,0,0,0.03703703703703704,17.77777777777778,0)" xlink:href="#aj"/></g><path d="M115-194c55 1 70 41 70 98S169 2 115 4C84 4 66-9 55-30l1 105H24l-1-265h31l2 30c10-21 28-34 59-34zm-8 174c40 0 45-34 45-75s-6-73-45-74c-42 0-51 32-51 76 0 43 10 73 51 73" id="ak"/><g id="q"><use transform="matrix(0.03703703703703704,0,0,0.03703703703703704,0,0)" xlink:href="#M"/><use transform="matrix(0.03703703703703704,0,0,0.03703703703703704,6.666666666666668,0)" xlink:href="#ak"/><use transform="matrix(0.03703703703703704,0,0,0.03703703703703704,14.074074074074076,0)" xlink:href="#N"/><use transform="matrix(0.03703703703703704,0,0,0.03703703703703704,21.481481481481485,0)" xlink:href="#R"/></g><path d="M18-150v-26h174v26H18zm0 90v-26h174v26H18" id="al"/><use transform="matrix(0.03703703703703704,0,0,0.03703703703703704,0,0)" xlink:href="#al" id="r"/><g id="s"><use transform="matrix(0.03703703703703704,0,0,0.03703703703703704,0,0)" xlink:href="#M"/><use transform="matrix(0.03703703703703704,0,0,0.03703703703703704,6.666666666666668,0)" xlink:href="#ak"/><use transform="matrix(0.03703703703703704,0,0,0.03703703703703704,14.074074074074076,0)" xlink:href="#N"/><use transform="matrix(0.03703703703703704,0,0,0.03703703703703704,21.481481481481485,0)" xlink:href="#R"/></g><path d="M210-169c-67 3-38 105-44 169h-31v-121c0-29-5-50-35-48C34-165 62-65 56 0H25l-1-190h30c1 10-1 24 2 32 10-44 99-50 107 0 11-21 27-35 58-36 85-2 47 119 55 194h-31v-121c0-29-5-49-35-48" id="am"/><path d="M24 0v-261h32V0H24" id="an"/><path d="M141-36C126-15 110 5 73 4 37 3 15-17 15-53c-1-64 63-63 125-63 3-35-9-54-41-54-24 1-41 7-42 31l-33-3c5-37 33-52 76-52 45 0 72 20 72 64v82c-1 20 7 32 28 27v20c-31 9-61-2-59-35zM48-53c0 20 12 33 32 33 41-3 63-29 60-74-43 2-92-5-92 41" id="ao"/><path d="M117-194c89-4 53 116 60 194h-32v-121c0-31-8-49-39-48C34-167 62-67 57 0H25l-1-190h30c1 10-1 24 2 32 11-22 29-35 61-36" id="ap"/><path d="M59-47c-2 24 18 29 38 22v24C64 9 27 4 27-40v-127H5v-23h24l9-43h21v43h35v23H59v120" id="aq"/><g id="t"><use transform="matrix(0.03703703703703704,0,0,0.03703703703703704,0,0)" xlink:href="#R"/><use transform="matrix(0.03703703703703704,0,0,0.03703703703703704,6.666666666666668,0)" xlink:href="#ab"/><use transform="matrix(0.03703703703703704,0,0,0.03703703703703704,14.074074074074076,0)" xlink:href="#am"/><use transform="matrix(0.03703703703703704,0,0,0.03703703703703704,25.148148148148152,0)" xlink:href="#ak"/><use transform="matrix(0.03703703703703704,0,0,0.03703703703703704,32.55555555555556,0)" xlink:href="#an"/><use transform="matrix(0.03703703703703704,0,0,0.03703703703703704,35.48148148148148,0)" xlink:href="#Q"/><use transform="matrix(0.03703703703703704,0,0,0.03703703703703704,38.407407407407405,0)" xlink:href="#ao"/><use transform="matrix(0.03703703703703704,0,0,0.03703703703703704,45.81481481481481,0)" xlink:href="#ap"/><use transform="matrix(0.03703703703703704,0,0,0.03703703703703704,53.222222222222214,0)" xlink:href="#aq"/></g><path d="M106-169C34-169 62-67 57 0H25v-261h32l-1 103c12-21 28-36 61-36 89 0 53 116 60 194h-32v-121c2-32-8-49-39-48" id="ar"/><g id="u"><use transform="matrix(0.03703703703703704,0,0,0.03703703703703704,0,0)" xlink:href="#am"/><use transform="matrix(0.03703703703703704,0,0,0.03703703703703704,11.074074074074076,0)" xlink:href="#N"/><use transform="matrix(0.03703703703703704,0,0,0.03703703703703704,18.481481481481485,0)" xlink:href="#R"/><use transform="matrix(0.03703703703703704,0,0,0.03703703703703704,25.148148148148152,0)" xlink:href="#ar"/><use transform="matrix(0.03703703703703704,0,0,0.03703703703703704,32.55555555555556,0)" xlink:href="#ao"/><use transform="matrix(0.03703703703703704,0,0,0.03703703703703704,39.96296296296296,0)" xlink:href="#ap"/><use transform="matrix(0.03703703703703704,0,0,0.03703703703703704,47.37037037037037,0)" xlink:href="#Q"/><use transform="matrix(0.03703703703703704,0,0,0.03703703703703704,50.2962962962963,0)" xlink:href="#M"/><use transform="matrix(0.03703703703703704,0,0,0.03703703703703704,56.96296296296296,0)" xlink:href="#am"/></g><path d="M179-190L93 31C79 59 56 82 12 73V49c39 6 53-20 64-50L1-190h34L92-34l54-156h33" id="as"/><g id="v"><use transform="matrix(0.03703703703703704,0,0,0.03703703703703704,0,0)" xlink:href="#ak"/><use transform="matrix(0.03703703703703704,0,0,0.03703703703703704,7.407407407407408,0)" xlink:href="#O"/><use transform="matrix(0.03703703703703704,0,0,0.03703703703703704,11.814814814814817,0)" xlink:href="#ab"/><use transform="matrix(0.03703703703703704,0,0,0.03703703703703704,19.222222222222225,0)" xlink:href="#ak"/><use transform="matrix(0.03703703703703704,0,0,0.03703703703703704,26.629629629629633,0)" xlink:href="#O"/><use transform="matrix(0.03703703703703704,0,0,0.03703703703703704,31.03703703703704,0)" xlink:href="#Q"/><use transform="matrix(0.03703703703703704,0,0,0.03703703703703704,33.96296296296297,0)" xlink:href="#N"/><use transform="matrix(0.03703703703703704,0,0,0.03703703703703704,41.37037037037038,0)" xlink:href="#aq"/><use transform="matrix(0.03703703703703704,0,0,0.03703703703703704,45.07407407407408,0)" xlink:href="#ao"/><use transform="matrix(0.03703703703703704,0,0,0.03703703703703704,52.481481481481495,0)" xlink:href="#O"/><use transform="matrix(0.03703703703703704,0,0,0.03703703703703704,56.8888888888889,0)" xlink:href="#as"/></g><path d="M68-38c1 34 0 65-14 84H32c9-13 17-26 17-46H33v-38h35" id="at"/><g id="w"><use transform="matrix(0.03703703703703704,0,0,0.03703703703703704,0,0)" xlink:href="#R"/><use transform="matrix(0.03703703703703704,0,0,0.03703703703703704,6.666666666666668,0)" xlink:href="#an"/><use transform="matrix(0.03703703703703704,0,0,0.03703703703703704,9.592592592592595,0)" xlink:href="#Q"/><use transform="matrix(0.03703703703703704,0,0,0.03703703703703704,12.518518518518523,0)" xlink:href="#N"/><use transform="matrix(0.03703703703703704,0,0,0.03703703703703704,19.925925925925934,0)" xlink:href="#ap"/><use transform="matrix(0.03703703703703704,0,0,0.03703703703703704,27.333333333333343,0)" xlink:href="#aq"/><use transform="matrix(0.03703703703703704,0,0,0.03703703703703704,31.037037037037045,0)" xlink:href="#M"/><use transform="matrix(0.03703703703703704,0,0,0.03703703703703704,37.70370370370371,0)" xlink:href="#at"/></g><g id="x"><use transform="matrix(0.03703703703703704,0,0,0.03703703703703704,0,0)" xlink:href="#M"/><use transform="matrix(0.03703703703703704,0,0,0.03703703703703704,6.666666666666668,0)" xlink:href="#N"/><use transform="matrix(0.03703703703703704,0,0,0.03703703703703704,14.074074074074076,0)" xlink:href="#O"/><use transform="matrix(0.03703703703703704,0,0,0.03703703703703704,18.481481481481485,0)" xlink:href="#P"/><use transform="matrix(0.03703703703703704,0,0,0.03703703703703704,25.148148148148152,0)" xlink:href="#Q"/><use transform="matrix(0.03703703703703704,0,0,0.03703703703703704,28.074074074074076,0)" xlink:href="#R"/><use transform="matrix(0.03703703703703704,0,0,0.03703703703703704,34.74074074074075,0)" xlink:href="#N"/><use transform="matrix(0.03703703703703704,0,0,0.03703703703703704,42.14814814814815,0)" xlink:href="#M"/><use transform="matrix(0.03703703703703704,0,0,0.03703703703703704,48.814814814814824,0)" xlink:href="#at"/></g></defs></g></svg>